<svg width="48" height="48" viewBox="0 0 48 48" fill="none" xmlns="http://www.w3.org/2000/svg">
<rect width="48" height="48" fill="#323238"/>
<path d="M16.701 12C14.1158 12 12 14.1158 12 16.701V31.2892C12 33.8744 14.1158 35.9895 16.701 35.9895H31.2892C33.8745 35.9895 35.9895 33.8745 35.9895 31.2892V16.701C35.9895 14.1158 33.8745 12 31.2892 12H16.701ZM17.8834 15.9588C19.123 15.9588 19.8865 16.7725 19.9101 17.8422C19.9101 18.8882 19.1229 19.7248 17.8595 19.7248H17.8362C16.6202 19.7248 15.8343 18.8882 15.8343 17.8422C15.8343 16.7725 16.644 15.9588 17.8834 15.9588H17.8834ZM28.5654 20.9582C30.9492 20.9582 32.7363 22.5163 32.7363 25.8647V32.1154H29.1134V26.2837C29.1134 24.8183 28.5891 23.8185 27.278 23.8185C26.2771 23.8185 25.6805 24.4924 25.4186 25.1434C25.3229 25.3763 25.2994 25.7015 25.2994 26.0273V32.1154H21.6765C21.6765 32.1154 21.7241 22.2367 21.6765 21.2138H25.3001V22.7576C25.7816 22.0148 26.6427 20.9582 28.5654 20.9582V20.9582ZM16.048 21.2146H19.6709V32.1155H16.048V21.2146V21.2146Z" fill="white"/>
</svg>
